<?xml version="1.0" encoding="utf-8"?>
<!-- Generator: Adobe Illustrator 27.5.0, SVG Export Plug-In . SVG Version: 6.00 Build 0)  -->
<svg version="1.1" id="Capa_1" xmlns="http://www.w3.org/2000/svg" xmlns:xlink="http://www.w3.org/1999/xlink" x="0px" y="0px"
	 viewBox="0 0 1733 2599" style="enable-background:new 0 0 1733 2599;" xml:space="preserve">
<path style="fill:#FAB956;" d="M1214.266,2390.918c-8.043-7.088-18.547-11.56-28.75-14.475
	c-15.683-4.526-33.126-5.679-49.008-10.554c-1.558-0.457-3.068-0.958-4.574-1.561c-4.676-1.61-9.148-3.667-13.372-6.332
	c-14.677-9.101-32.217-20.307-41.617-34.733c-4.649-7.109-6.735-15.628-9.546-23.71c10.191-2.468,16.332-4.385,16.332-4.385
	c-16.011-156.72-3.876-527.799-0.619-553.197c0.228-1.779,0.416-3.513,0.568-5.205c23.788-157.462,12.594-419.719,7.52-513.117
	l0.002-0.514l9.338-196.958c46.279,7.92,69.835,5.756,69.835,5.756c55.762,0,52.534-94.581,46.566-146.474
	c5.989,5.937,8.697,10.018,8.697,10.018c28.103-224.08-105.297-338.862-144.142-348.679c0,0-13.353-5.157-38.57-11.278
	c-0.955-2.274-1.946-4.478-2.973-6.605l-41.516-6.768c0,0,0.44,1.537,1.193,4.534c-1.486-0.251-2.988-0.501-4.512-0.748
	c-6.755-31.295-29.059-40.912-58.804-42.915l-16.71-59.864c18.605-17.464,31.049-36.421,35.371-62.442
	c0.179-1.079,0.342-2.157,0.494-3.235c8.045,3.047,17.45,0.903,24.706-6.646c10.991-11.435,12.886-30.942,4.233-43.568
	c-7.003-10.219-18.768-12.799-28.828-7.349c4.296-17.182,6.379-33.421,7.307-46.853c16.981-8.015,26.949-17.777,26.949-28.31
	c0-6.154-3.404-12.045-9.62-17.479c-0.162-9.79-8.141-17.679-17.971-17.679l1.795-0.018c-2.363-31.926-17.931-60.423-41.398-80.415
	l-0.711-12.227c-0.108-1.9-2.064-3.372-4.343-3.273c-2.287,0.091-4.052,1.705-3.943,3.604l0.297,5.102l-0.013-0.009
	c-6.947-4.968-14.412-9.2-22.395-12.635l-0.02-0.009l-0.431-7.42c-0.111-1.899-2.064-3.372-4.346-3.274
	c-2.286,0.092-4.052,1.706-3.94,3.605l0.216,3.717c-7.606-2.695-15.581-4.655-23.778-5.881c-1.256-3.251-5.026-5.582-9.387-5.582
	h-18.33c-4.361,0-8.13,2.331-9.387,5.582c-8.199,1.226-16.175,3.186-23.784,5.882l0.216-3.719c0.111-1.899-1.654-3.514-3.942-3.605
	c-2.28-0.098-4.232,1.375-4.344,3.274l-0.431,7.423l-0.014,0.006c-7.982,3.435-15.447,7.666-22.394,12.635l-0.02,0.014l0.297-5.107
	c0.11-1.899-1.654-3.513-3.942-3.604c-2.279-0.1-4.234,1.373-4.343,3.273l-0.704,12.101l-0.009,0.009
	c-23.429,19.995-39.025,48.516-41.39,80.532l1.792,0.018c-9.83,0-17.814,7.89-17.975,17.681c-6.215,5.433-9.618,11.323-9.618,17.477
	c0,10.533,9.968,20.294,26.949,28.31c0.928,13.432,3.011,29.672,7.307,46.853c-10.059-5.449-21.824-2.869-28.828,7.349
	c-8.653,12.626-6.758,32.133,4.233,43.568c7.256,7.549,16.661,9.692,24.706,6.646c0.152,1.078,0.315,2.156,0.494,3.235
	c4.321,26.021,16.766,44.978,35.371,62.442l-16.711,59.864c-32.371,2.18-55.931,13.376-60.225,51.719l-0.365,0.128
	c-0.62-1.212-1.24-2.404-1.865-3.571l-38.383,15.354c0,0,0.428,0.942,1.231,2.936c-44.846,18.29-92.67,43.111-112.037,71.28
	c-2.413,3.51-4.123,7.253-5.208,11.191c-2.677,6.619-66.573,168.31,18.008,320.372c0,0,2.69-4.35,8.432-10.979
	c17.244,40.749,52.604,107.872,102.754,121.571c6.924,86.292,11.201,168.726,5.877,200.849l-0.248,1.373
	c0,0-46.32,281.809-40.905,459.33c-12.112,3.363-22.343,14.266-11.867,45.246c8.203,24.257-40.388,424.258-65.385,579.798
	c0,0,8.613,3.733,22.008,8.087c-0.757,7.48-1.576,14.952-2.939,22.352c-2.464,13.371-6.493,25.634-10.819,38.58
	c-4.632,13.856-12.607,27.19-16.159,41.038c-1.596,6.229-4.004,12.218-4.076,17.878c-0.407,2.491-0.552,5.075-0.485,7.84
	c0.144,5.801-0.129,12.851,2.243,18.212c1.792,4.054,8.019,7.59,12.26,7.637l0.158-0.002c0.13,0.585,0.788,1.093,1.349,1.557
	c1.843,1.508,5.339,2.524,7.628,3.043c2.806,0.637,5.721,1.677,8.435,2.095c3.219,0.492,4.792-1.677,7.672-2.419
	c0.522-0.135,1.39-0.052,2.205-0.046c0.036,2.078,1.661,4.421,3.101,5.085c5.044,2.331,12.773,2.613,18.344,2.503
	c2.748-0.054,6.328,0.469,9.008-0.206c1.523-0.383,2.868-2.229,2.995-4.051l0.21,0.075c5.211,1.782,13.49,0.851,18.398-0.51
	c2.276-0.64,5.478-1.698,6.875-3.782c0.753-1.127,1.453-3.681,1.485-5.816l0.858,0.189c1.303,0.094,3.377-0.516,4.659-0.856
	c2.462-0.651,6.364-1.776,8.105-3.621c2.186-2.323,1.638-7.583,1.897-10.648c0.691-8.211,0.066-16.484,0.534-24.488
	c0.395-6.75,2.759-10.87,6.208-16.299c3.686-5.82,3.033-12.416,1.571-18.869c-0.019-3.94-0.418-7.995,0.204-11.983
	c2.734-17.5,3.146-35.28,4.112-53.023c7.146-1.339,13.974-3.437,20.253-6.484c0,0,76.352-513.947,107.534-549.926
	c13.979-16.129,10.229-30.591,3.202-40.889c30.273-58.648,56.228-140.438,75.753-222.611c3.778,93.182,14.505,188.075,36.64,254.777
	c-11.798,6.253-19.779,17.598-7.292,38.125c25.185,41.402,33.217,481.868,32.99,460.978c4.424,1.392,8.976,2.549,13.617,3.497
	c0.028,9.792,0.128,19.527,0.448,29.145c0.503,15.433-1.256,30.861-1.256,46.391c0,6.182-2.772,15.845-0.995,21.542
	c-0.102,0.624-0.211,1.247-0.338,1.867c-1.028,5.017-1.531,10.466-1.745,15.546c-0.162,3.868-1.674,14.333,0.744,17.539
	c3.696,4.908,9.473,0.457,13.629,0.059c6.043-0.574,5.051,7.903,12.718,5.719c2.857-0.815,3.588-3.406,6.985-2.356
	c2.986,0.927,2.505,3.657,4.607,5.105c1.163,0.8,5.937,1.438,7.444,1.247c3.34-0.432,4.587-3.353,7.687-4.03
	c3.752-0.82,4.148,1.458,6.101,2.94c2.405,1.831,2.634,2.532,6.266,2.758c6.644,0.412,7.216-3.652,11.123-7.947
	c9.132-10.043,16.64-5.345,27.569-1.664c10.23,3.451,18.736,9.159,28.416,14.383c9.891,5.34,21.083,8.069,32.09,9.675
	c5.181,0.756,11.04,1.129,16.451,0.933c2.685-0.103,5.13-0.304,7.69-0.673c3.426-0.49,3.639-1.251,5.664-2.675
	c3.306-2.327,2.398-2.533,6.116-1.065c2.658,1.045,3.282,2.499,6.936,1.993c6.232-0.854,8.206-6.504,13.365-9.376
	c2.454-1.365,6.229-3.053,8.779-0.992c2.747,2.219-0.363,3.289,3.596,4.084c3.892,0.79,9.717-1.797,13.285-3.088
	c4.877-1.768,3.64-3.034,6.688-5.945c0.893-0.854,2.037-1.748,3.35-1.728c2.183,0.04,1.071,1.552,2.496,2.013
	c3.096,1.006,4.03,0.864,7.27-0.697c3.348-1.606,3.645-2.882,5.768-5.596c2.177-2.783,4.496-2.817,6.95-4.923
	c6.74-5.78,7.405-18.427,2.75-26.045C1224.252,2403.466,1218.804,2394.965,1214.266,2390.918z"/>
<path style="fill:#AE7858;" d="M1216.943,885.458c-13.689-13.571-44.53-36.838-99.401-43.244c-0.172-1.734-0.1-3.419,0.621-4.958
	c1.446-3.088,4.988-4.496,7.494-6.807c3.377-3.114,4.807-8.181,3.558-12.601c-1.249-4.421-4.047-9.352-8.554-10.238
	c-4.329,7.651-15.79,5.659-23.208,3.919c-7.418-1.739-14.31-5.789-21.034-9.373c1.634-4.26,3.341-8.089,4.975-12.349l-0.346,0.055
	c-3.106,0.472-6.077,1.209-8.946,2.157c-26.564,8.779-44.405,35.734-80.03,39.495c-5.67,0.268-11.368,0.632-17.08,1.081
	c-99.453-1.099-186.689,15.329-203.358,18.672c0,0-22.868-18.82-51.661-33.787c-23.469-12.2-50.874-21.843-73.043-16.649
	c-7.243,1.697-10.013,14.438-4.354,20.819l0.253,0.281c0,0-20.306,13.206-5.692,31.483c0,0-2.538,17.896,16.313,20.959
	c6.949,1.13,10.702,0.702,12.673-0.286c-0.34,1.809-0.516,3.931-0.201,6.068c-61.504,12.072-96.509,44.237-111.285,61.297
	c17.244,40.749,52.604,107.872,102.754,121.571c7.704,2.104,15.756,2.949,24.145,2.243c84.556-2.875,169.111-50.834,231.689-97.162
	c35.165,14.919,66.809,26.396,94.879,35.215l5.889,7.003l0.436-5.042c34.288,10.49,63.025,16.949,86.109,20.9
	c46.279,7.92,69.835,5.756,69.835,5.756C1226.139,1031.932,1222.911,937.352,1216.943,885.458z"/>
<path style="fill:#AE7858;" d="M984.409,307.264c-7.003-10.219-18.768-12.799-28.828-7.349c4.296-17.182,6.379-33.421,7.307-46.853
	c-3.997,1.886-8.381,3.677-13.118,5.357c-13.465,4.777-29.761,8.669-48.002,11.382c-5.82,0.866-11.837,1.611-18.025,2.228
	c-13.633,1.358-28.088,2.09-43.059,2.09c-14.971,0-29.427-0.731-43.06-2.09c-6.187-0.617-12.205-1.362-18.025-2.227
	c-18.242-2.714-34.538-6.606-48.003-11.383c-4.736-1.68-9.12-3.471-13.118-5.357c0.928,13.432,3.011,29.672,7.307,46.853
	c-10.059-5.449-21.824-2.869-28.828,7.349c-8.653,12.626-6.758,32.133,4.233,43.568c7.256,7.549,16.661,9.692,24.706,6.646
	c0.152,1.078,0.315,2.156,0.494,3.235c4.321,26.021,16.766,44.978,35.371,62.442l-16.711,59.864l-14.388,51.542
	c7.296,13.393,23.109,23.943,41.453,32.133c10.769-1.631,21.83-1.155,32.714,1.735c10.694,2.84,19.899,8.328,29.852,12.918
	c10.601,4.89,21.919,8.234,33.583,9.145l0.94,0.266c12.098-3.259,60.945-18.465,81.5-56.198l-14.388-51.542l-16.71-59.864
	c18.605-17.464,31.049-36.421,35.371-62.442c0.179-1.079,0.342-2.157,0.494-3.235c8.045,3.047,17.45,0.903,24.706-6.646
	C991.167,339.397,993.062,319.89,984.409,307.264z"/>
<path style="fill:#2E587D;" d="M1081.497,546.798c0,0-13.353-5.157-38.57-11.278c30.157,71.803,24.898,213.212,24.898,213.212
	l-10.006-1.383v30.565c3.293,0.519,6.583,1.061,9.869,1.63c0.581,0.1,1.2,0.221,1.622,0.634l0.659,1.482
	c0.801,3.433,1.51,6.886,2.134,10.356c2.869-0.948,5.84-1.685,8.946-2.157l0.346-0.055c-1.634,4.26-3.341,8.089-4.975,12.349
	c6.724,3.584,13.616,7.634,21.034,9.373c7.418,1.74,18.879,3.733,23.208-3.919c4.507,0.885,7.305,5.817,8.554,10.238
	c1.249,4.42-0.182,9.487-3.558,12.601c-2.506,2.311-6.048,3.719-7.494,6.807c-0.722,1.54-0.793,3.225-0.621,4.958
	c54.871,6.406,85.711,29.673,99.401,43.244c5.989,5.937,8.697,10.018,8.697,10.018
	C1253.743,671.397,1120.342,556.614,1081.497,546.798z"/>
<path style="fill:#2E587D;" d="M743.941,731.844h-11.578l3.302,29.311c3.918-0.102,7.837-0.178,11.756-0.225
	c0.666-0.009,1.378-0.005,1.931,0.325l1.04,1.336c3.345,5.549,4.609,10.756,4.908,15.565c34.177-1.073,68.505,0.359,102.697,2.511
	c32.844,2.068,65.673,4.284,98.525,6.236c21.147,1.257,42.3,2.621,63.402,4.53c0.253-4.858,0.507-9.715,0.76-14.572
	c0.042-0.818,0.105-1.693,0.602-2.344c0.848-1.112,2.506-1.075,3.897-0.926c2.057,0.221,4.113,0.454,6.168,0.693V743.69
	l-12.156-1.681c2.542-118.531-14.791-196.327-19.562-215.327c-1.486-0.251-2.988-0.501-4.512-0.748
	c-6.755-31.295-29.059-40.912-58.804-42.915l14.388,51.542c-20.554,37.732-69.401,52.938-81.5,56.198l-0.94-0.266
	c-11.664-0.911-22.982-4.256-33.583-9.145c-9.952-4.591-19.158-10.078-29.852-12.918c-10.884-2.89-21.945-3.365-32.714-1.735
	c-18.344-8.19-34.156-18.74-41.453-32.133l14.388-51.542c-32.371,2.18-55.931,13.376-60.225,51.719l-0.365,0.128
	C718.125,600.781,743.941,731.844,743.941,731.844z"/>
<path style="fill:#421F35;" d="M566.873,2357.702c-0.757,7.48-1.576,14.952-2.939,22.352c-2.464,13.371-6.493,25.634-10.819,38.58
	c-4.632,13.856-12.607,27.19-16.159,41.038c-1.596,6.229-4.004,12.218-4.076,17.878c-0.407,2.491-0.552,5.075-0.485,7.84
	c0.144,5.801-0.129,12.851,2.243,18.212c1.792,4.054,8.019,7.59,12.26,7.637l0.158-0.002c0.13,0.585,0.788,1.093,1.349,1.557
	c1.843,1.508,5.339,2.524,7.628,3.043c2.806,0.637,5.721,1.677,8.435,2.095c3.219,0.492,4.792-1.677,7.672-2.419
	c0.522-0.135,1.39-0.052,2.205-0.046c0.036,2.078,1.661,4.421,3.101,5.085c5.044,2.331,12.773,2.613,18.344,2.503
	c2.748-0.054,6.328,0.469,9.008-0.206c1.523-0.383,2.868-2.229,2.995-4.051l0.21,0.075c5.211,1.782,13.49,0.851,18.398-0.51
	c2.276-0.64,5.478-1.698,6.875-3.782c0.753-1.127,1.453-3.681,1.485-5.816l0.858,0.189c1.303,0.094,3.377-0.516,4.659-0.856
	c2.462-0.651,6.364-1.776,8.105-3.621c2.186-2.323,1.638-7.583,1.897-10.648c0.691-8.211,0.066-16.484,0.534-24.488
	c0.395-6.75,2.759-10.87,6.208-16.299c3.686-5.82,3.033-12.416,1.571-18.869c-0.019-3.94-0.418-7.995,0.204-11.983
	c2.734-17.5,3.146-35.28,4.112-53.023C630.223,2375.291,590.871,2365.502,566.873,2357.702z"/>
<path style="fill:#421F35;" d="M1214.266,2390.918c-8.043-7.088-18.547-11.56-28.75-14.475
	c-15.683-4.526-33.126-5.679-49.008-10.554c-1.558-0.457-3.068-0.958-4.574-1.561c-4.676-1.61-9.148-3.667-13.372-6.332
	c-14.677-9.101-32.217-20.307-41.617-34.733c-4.649-7.109-6.735-15.628-9.546-23.71c-25.858,6.261-77.805,16.066-121.792,7.082
	c0.028,9.792,0.128,19.527,0.448,29.145c0.503,15.433-1.256,30.861-1.256,46.391c0,6.182-2.772,15.845-0.995,21.542
	c-0.102,0.624-0.211,1.247-0.338,1.867c-1.028,5.017-1.531,10.466-1.745,15.546c-0.162,3.868-1.674,14.333,0.744,17.539
	c3.696,4.908,9.473,0.457,13.629,0.059c6.043-0.574,5.051,7.903,12.718,5.719c2.857-0.815,3.588-3.406,6.985-2.356
	c2.986,0.927,2.505,3.657,4.607,5.105c1.163,0.8,5.937,1.438,7.444,1.247c3.34-0.432,4.587-3.353,7.687-4.03
	c3.752-0.82,4.148,1.458,6.101,2.94c2.405,1.831,2.634,2.532,6.266,2.758c6.644,0.412,7.216-3.652,11.123-7.947
	c9.132-10.043,16.64-5.345,27.569-1.664c10.23,3.451,18.736,9.159,28.416,14.383c9.891,5.34,21.083,8.069,32.09,9.675
	c5.181,0.756,11.04,1.129,16.451,0.933c2.685-0.103,5.13-0.304,7.69-0.673c3.426-0.49,3.639-1.251,5.664-2.675
	c3.306-2.327,2.398-2.533,6.116-1.065c2.658,1.045,3.282,2.499,6.936,1.993c6.232-0.854,8.206-6.504,13.365-9.376
	c2.454-1.365,6.229-3.053,8.779-0.992c2.747,2.219-0.363,3.289,3.596,4.084c3.892,0.79,9.717-1.797,13.285-3.088
	c4.877-1.768,3.64-3.034,6.688-5.945c0.893-0.854,2.037-1.748,3.35-1.728c2.183,0.04,1.071,1.552,2.496,2.013
	c3.096,1.006,4.03,0.864,7.27-0.697c3.348-1.606,3.645-2.882,5.768-5.596c2.177-2.783,4.496-2.817,6.95-4.923
	c6.74-5.78,7.405-18.427,2.75-26.045C1224.252,2403.466,1218.804,2394.965,1214.266,2390.918z"/>
<path style="fill:#421F35;" d="M882.12,1648.448l20.955-196.739l-26.762,87.843C876.312,1539.552,874.86,1614.328,882.12,1648.448z"
	/>
<path style="fill:#DFDDDD;" d="M732.363,731.844h-26.637l3.427,30.422c8.829-0.508,17.667-0.88,26.511-1.111L732.363,731.844z"/>
<path style="fill:#DFDDDD;" d="M1057.82,747.349l-26.47-3.659v30.596c8.847,1.033,17.672,2.241,26.47,3.629V747.349z"/>
<path style="fill:#F59C51;" d="M766.74,1220.769c0,0,114.361,92.582,266.568-23.937c0,0,25.422-94.74,5.509-170.967
	c0,0-107.921,74.439-264.286,39.397C774.53,1065.262,780.283,1164.123,766.74,1220.769z"/>
<path style="fill:#421F35;" d="M838.68,462.771c-37.328-1.054-60.741-23.937-72.217-33.562
	c62.798,91.411,164.842,70.527,164.842,70.527l-16.704-70.266C914.601,429.47,881.816,463.989,838.68,462.771z"/>
<path style="fill:#421F35;" d="M854.271,361.905c-6.703-12.323-8.559-27.189-10.42-41.004c-0.201-2.059-0.395-4.124-0.686-6.197
	c-1.678,16.11-0.571,33.214,7.369,47.69c-6.99,5.279-15.908,8.18-24.315,10.803c10.237-0.754,20.694-3.127,28.928-9.819
	L854.271,361.905z"/>
<path style="fill:#421F35;" d="M794.127,316.522c0.809-2.373,1.297-5.154,1.297-8.159c0-8.533-3.773-15.451-8.428-15.451
	c-4.655,0-8.428,6.918-8.428,15.451c0,3.005,0.488,5.786,1.297,8.159H794.127z"/>
<path style="fill:#421F35;" d="M901.503,316.522c0.809-2.373,1.297-5.154,1.297-8.159c0-8.533-3.774-15.451-8.428-15.451
	c-4.655,0-8.427,6.918-8.427,15.451c0,3.005,0.488,5.786,1.297,8.159H901.503z"/>
<path style="fill:#421F35;" d="M727.238,305.434c-0.009-0.574-0.348-23.682,4.359-47.016c-4.736-1.68-9.12-3.471-13.118-5.357
	c0.928,13.432,3.011,29.672,7.307,46.853c0.458,1.834,0.942,3.678,1.452,5.531V305.434z"/>
<path style="fill:#421F35;" d="M949.771,258.418c4.707,23.335,4.368,46.443,4.359,47.016v0.011c0.51-1.853,0.993-3.697,1.452-5.531
	c4.296-17.182,6.379-33.421,7.307-46.853C958.892,254.947,954.507,256.738,949.771,258.418z"/>
<path style="fill:#AD624F;" d="M906.019,373.685c20.152,0,36.489-9.2,36.489-20.549c0-11.349-16.337-20.549-36.489-20.549
	c-20.152,0-36.489,9.2-36.489,20.549C869.53,364.485,885.867,373.685,906.019,373.685z"/>
<path style="fill:#AD624F;" d="M811.837,353.136c0-11.349-16.337-20.549-36.49-20.549c-20.152,0-36.488,9.2-36.488,20.549
	c0,11.349,16.336,20.549,36.488,20.549C795.5,373.685,811.837,364.485,811.837,353.136z"/>
<path style="fill:#421F35;" d="M879.738,284.888c1.289-1.807,3.702-2.391,5.342-3.809c-0.674,1.693-1.009,3.536-1.123,5.449
	c2.521-2.918,36.425-6.358,58.954,7.832c-9.027-21.256-29.763-26.779-41.503-24.167l0.361-0.393
	c-5.82,0.866-11.837,1.611-18.025,2.228C881.348,275.703,880.335,279.693,879.738,284.888z"/>
<path style="fill:#421F35;" d="M779.961,270.193c-11.74-2.612-32.477,2.911-41.504,24.167c22.529-14.19,56.434-10.751,58.954-7.832
	c-0.114-1.913-0.449-3.756-1.123-5.449c1.64,1.418,4.053,2.001,5.342,3.809c-0.597-5.195-1.611-9.185-4.005-12.86
	c-6.187-0.617-12.205-1.362-18.025-2.227L779.961,270.193z"/>
<path style="fill:#DFDDDD;" d="M1166.277,735.083c1.846-1.553,3-3.776,3.208-6.179l2.58-29.86c0.208-2.403-0.549-4.791-2.101-6.638
	l-17.816-21.186l-3.69,42.71l-24.096,11.268l-21.807-15.234l3.69-42.71l-21.186,17.816c-1.847,1.553-3,3.776-3.208,6.179
	l-2.58,29.86c-0.208,2.404,0.548,4.791,2.101,6.638l16.881,20.074l-17.204,42.039l0.346-0.055c-1.634,4.26-3.341,8.089-4.975,12.349
	c6.724,3.584,13.616,7.634,21.034,9.373c7.418,1.74,18.879,3.733,23.208-3.919l21.319-52.095L1166.277,735.083z"/>
<path style="fill:#DFDDDD;" d="M1041.783,956.339l21.807,15.235l-3.69,42.71l21.186-17.816c1.846-1.553,3-3.776,3.208-6.18
	l2.58-29.859c0.208-2.404-0.548-4.791-2.1-6.638l-16.1-19.144l14.975-36.593c-2.686,0.709-5.443,1.202-8.118,1.554
	c-14.296,1.882-23.953-3.01-36.68-6.635l-13.005,31.78l-0.156-0.013l-25.822,21.715c-1.846,1.553-3,3.775-3.208,6.179l-2.58,29.859
	c-0.208,2.404,0.549,4.792,2.101,6.638l11.927,14.183l5.889,7.003l0.436-5.042l3.254-37.669L1041.783,956.339z"/>
<path style="fill:#2E587D;" d="M665.925,880.151c-0.315-2.137-0.139-4.259,0.201-6.068c-1.972,0.989-5.725,1.416-12.673,0.286
	c-18.851-3.062-16.313-20.959-16.313-20.959c-14.615-18.277,5.692-31.483,5.692-31.483l-0.253-0.281
	c-5.66-6.381-2.89-19.122,4.354-20.819c22.169-5.194,49.574,4.448,73.043,16.649c-5.893-10.935-13.45-23.142-23.136-36.402
	c-0.712-4.709-1.423-9.419-2.135-14.128c-0.123-0.813-0.236-1.684,0.181-2.415c0.709-1.25,2.557-1.519,4.132-1.628
	c3.377-0.235,6.755-0.445,10.136-0.639l-3.427-30.422h-15.689c-20.603-118-39.661-170.011-44.593-182.26
	c-44.846,18.29-92.67,43.111-112.037,71.28c-2.413,3.51-4.123,7.253-5.208,11.191c-2.677,6.619-66.573,168.31,18.008,320.372
	c0,0,2.69-4.35,8.432-10.979C569.416,924.389,604.421,892.223,665.925,880.151z"/>
<path style="fill:#421F35;" d="M720.41,880.471c1.014-0.209,12.367-2.351,22.339,4.035l141.269-38.667L720.41,880.471z"/>
<path style="fill:#421F35;" d="M1003.941,890.098c0,0-50.261,49.06-85.185,73.872l37.713,16.885L1003.941,890.098z"/>
<path style="fill:#F59C51;" d="M980.218,207.273c-0.162-9.79-8.141-17.679-17.971-17.679h-16.859l-41.878-0.018
	c-24.095,0-43.681-16.192-43.681-36.249V83.161c0-0.982-0.222-1.84-0.591-2.699c-1.256-3.251-5.026-5.582-9.387-5.582h-18.33
	c-4.361,0-8.13,2.331-9.387,5.582c-0.37,0.859-0.591,1.717-0.591,2.699v70.166c0,20.057-19.586,36.249-43.755,36.249l-41.809,0.018
	h-16.858c-9.83,0-17.814,7.89-17.975,17.681l-0.008,0.299v11.845h0.003c0,23.291,62.475,42.171,139.542,42.171
	c77.067,0,139.542-18.881,139.542-42.171v-11.845L980.218,207.273z"/>
<path style="fill:#421F35;" d="M855.679,407.055c2.712,0.504,5.358,0.761,7.963,0.761c11.848,0,22.812-5.284,34.648-16.496
	c0.612-0.582,0.639-1.548,0.06-2.16c-0.582-0.609-1.545-0.635-2.16-0.06c-13.659,12.943-25.978,17.561-39.95,14.954
	c-0.824-0.167-1.629,0.391-1.781,1.22C854.304,406.103,854.849,406.903,855.679,407.055z"/>
<path style="fill:#421F35;" d="M703.772,325.387c0.809-0.242,1.268-1.092,1.03-1.901c-0.856-2.882-0.027-6.277,2.065-8.443
	c2.089-2.166,5.463-3.121,8.36-2.363c4.317,1.11,7.095,5.445,8.258,9.129c0.627,1.999,0.973,4.052,1.209,6.176
	c-0.522-0.57-1.089-1.098-1.695-1.575c-2.211-1.743-5.648-3.082-8.661-1.624c-2.321,1.122-3.876,3.804-3.962,6.833
	c-0.072,2.521,0.758,4.899,1.486,6.996c0.221,0.633,0.812,1.027,1.444,1.027l0.501-0.084c0.797-0.277,1.218-1.149,0.943-1.945
	c-0.677-1.942-1.375-3.947-1.319-5.908c0.045-1.557,0.752-3.452,2.237-4.168c1.749-0.85,4.025,0.149,5.439,1.271
	c2.198,1.737,3.756,4.311,4.275,7.068c0.152,0.805,0.91,1.325,1.718,1.229c0.811-0.117,1.385-0.854,1.301-1.668
	c-0.116-1.163-0.206-2.336-0.295-3.512c-0.281-3.646-0.57-7.417-1.71-11.036c-1.823-5.785-5.714-9.962-10.406-11.17
	c-4.016-1.029-8.455,0.227-11.323,3.201c-2.876,2.981-3.971,7.468-2.795,11.436C702.114,325.166,702.955,325.62,703.772,325.387z"/>
<path style="fill:#421F35;" d="M953.262,331.927c-0.089,1.176-0.179,2.348-0.295,3.512c-0.084,0.815,0.489,1.551,1.301,1.668
	c0.805,0.125,1.566-0.424,1.718-1.229c0.519-2.757,2.076-5.332,4.275-7.068c1.415-1.119,3.697-2.115,5.439-1.271
	c1.486,0.716,2.193,2.611,2.238,4.172c0.056,1.957-0.642,3.962-1.319,5.904c-0.274,0.796,0.147,1.668,0.943,1.945l0.502,0.084
	c0.632,0,1.223-0.394,1.444-1.027c0.728-2.097,1.557-4.475,1.486-6.993c-0.087-3.031-1.641-5.714-3.963-6.836
	c-3.025-1.455-6.456-0.119-8.661,1.624c-0.605,0.477-1.173,1.005-1.694,1.575c0.236-2.125,0.582-4.177,1.209-6.176
	c1.163-3.685,3.941-8.02,8.258-9.129c2.912-0.749,6.272,0.197,8.363,2.366c2.089,2.163,2.918,5.559,2.062,8.44
	c-0.239,0.809,0.221,1.659,1.029,1.901c0.83,0.236,1.662-0.221,1.901-1.03c1.175-3.968,0.08-8.455-2.793-11.433
	c-2.87-2.977-7.31-4.233-11.325-3.204c-4.693,1.209-8.584,5.386-10.406,11.17C953.832,324.509,953.542,328.281,953.262,331.927z"/>
<path style="fill:#421F35;" d="M679.313,1048.036c-0.466-3.231-2.715-6.421-5.597-7.931c-2.366-1.241-5.842-1.9-8.491-0.045
	c-1.51,1.056-2.384,3.004-2.223,4.965c0.134,1.677,1.005,3.022,2.387,3.685c0.761,0.367,1.671,0.051,2.038-0.713
	c0.367-0.761,0.048-1.674-0.713-2.038l-0.669-1.181c-0.071-0.871,0.31-1.781,0.928-2.211c1.542-1.077,3.828-0.543,5.323,0.242
	c2.022,1.062,3.667,3.392,3.992,5.663c0.152,1.053,0.087,2.545-1.086,3.678c-2.533,2.45-7.265,0.773-10.84-1.605
	c-3.138-2.089-6.146-4.415-8.933-6.922c-0.623-0.561-1.59-0.513-2.157,0.116c-0.564,0.627-0.513,1.593,0.116,2.157
	c2.898,2.604,6.021,5.024,9.282,7.19c3.323,2.211,6.504,3.33,9.231,3.33c2.136,0,3.995-0.686,5.424-2.07
	C678.964,1052.759,679.671,1050.518,679.313,1048.036z"/>
<path style="fill:#421F35;" d="M1180.9,1006.947c-2.456,0.522-4.69,1.867-6.295,3.792c-0.54,0.647-0.453,1.611,0.194,2.151
	c0.65,0.54,1.611,0.456,2.151-0.194c1.08-1.295,2.554-2.232,4.18-2.665c-1.697,2.793-4.544,4.834-7.745,5.52
	c-0.981,0.203-2.085,0.08-2.632-0.287l-0.301-0.424l0.537-1.462c2.217-3.664,5.627-6.558,9.604-8.148
	c0.785-0.31,1.163-1.199,0.85-1.984c-0.313-0.785-1.205-1.169-1.985-0.85c-4.591,1.832-8.527,5.17-11.086,9.404
	c-0.558,0.927-1.169,2.172-0.934,3.553c0.17,1.003,0.724,1.844,1.599,2.438c0.99,0.671,2.225,0.916,3.359,0.916
	c0.585,0,1.143-0.066,1.626-0.168c4.317-0.927,8.121-3.816,10.177-7.73c0.182-0.352,0.609-1.176,0.355-2.136
	C1184.182,1007.283,1182.681,1006.589,1180.9,1006.947z"/>
<path style="fill:#421F35;" d="M737.654,887.494c-0.248-0.805-1.098-1.268-1.909-1.008c-18.65,5.758-33.95,19.256-47.451,31.166
	c-0.632,0.558-0.692,1.524-0.134,2.157l1.146,0.516l1.011-0.382c13.268-11.707,28.305-24.972,46.328-30.54
	C737.451,889.156,737.904,888.3,737.654,887.494z"/>
<path style="fill:#421F35;" d="M691.188,891.394c5.17-2.318,10.517-4.717,16.081-5.38c0.835-0.098,1.435-0.859,1.334-1.697
	c-0.101-0.841-0.895-1.471-1.698-1.333c-6.023,0.716-11.587,3.21-16.967,5.624c-1.28,0.573-2.56,1.146-3.843,1.694
	c-2.876,1.236-6.233,2.521-9.44,2.085c-4.073-0.54-7.582-4.168-7.99-8.253c-0.08-0.838-0.835-1.447-1.671-1.366
	c-0.838,0.084-1.453,0.829-1.366,1.671c0.549,5.526,5.117,10.246,10.624,10.98c0.579,0.075,1.155,0.111,1.725,0.111
	c3.362,0,6.546-1.226,9.321-2.417C688.595,892.557,689.89,891.976,691.188,891.394z"/>
<path style="fill:#421F35;" d="M658.068,887.214c-3.754,3.882-6.886,8.292-9.309,13.104c-0.379,0.752-0.078,1.671,0.678,2.049
	l0.686,0.164c0.558,0,1.095-0.307,1.363-0.841c2.285-4.535,5.239-8.691,8.777-12.352c0.588-0.606,0.57-1.575-0.035-2.16
	C659.622,886.597,658.655,886.608,658.068,887.214z"/>
<path style="fill:#421F35;" d="M659.756,912.144h0.039c0.826,0,1.507-0.659,1.528-1.488c0.179-6.88,1.059-13.751,2.62-20.425
	c0.191-0.821-0.32-1.641-1.143-1.835c-0.827-0.182-1.641,0.322-1.835,1.143c-1.605,6.871-2.512,13.951-2.697,21.04
	C658.247,911.42,658.912,912.12,659.756,912.144z"/>
<path style="fill:#421F35;" d="M693.386,894.407c0.609-0.585,0.63-1.551,0.048-2.16c-0.585-0.609-1.552-0.632-2.161-0.048
	c-3.073,2.944-5.307,6.665-6.465,10.758c-0.23,0.811,0.245,1.656,1.056,1.886l0.415,0.057c0.668,0,1.279-0.439,1.471-1.113
	C688.759,900.219,690.707,896.973,693.386,894.407z"/>
<path style="fill:#421F35;" d="M690.03,907.505l0.579,0.114c0.602,0,1.172-0.358,1.414-0.949c1.88-4.594,4.18-9.058,6.838-13.262
	c0.451-0.713,0.239-1.659-0.474-2.109c-0.71-0.442-1.656-0.236-2.109,0.474c-2.754,4.356-5.138,8.981-7.083,13.74
	C688.876,906.294,689.251,907.186,690.03,907.505z"/>
<path style="fill:#421F35;" d="M565.118,945.205c15.839-16.413,35.79-28.225,54.867-38.915c0.738-0.415,1-1.346,0.588-2.079
	c-0.414-0.74-1.342-0.991-2.079-0.588c-19.277,10.804-39.446,22.746-55.571,39.457c-0.588,0.609-0.57,1.575,0.035,2.16l1.063,0.43
	L565.118,945.205z"/>
<path style="fill:#421F35;" d="M992.477,890.765l1.349,0.811l0.716-0.179c13.387-7.095,29.355-8.563,43.819-4.025
	c0.8,0.266,1.662-0.194,1.913-1c0.253-0.802-0.194-1.661-0.999-1.912c-15.222-4.792-32.055-3.24-46.165,4.239
	C992.364,889.094,992.08,890.018,992.477,890.765z"/>
<path style="fill:#421F35;" d="M1097.597,881.345c-0.845-0.212-1.65,0.287-1.856,1.104c-0.537,2.124-2.411,3.926-4.55,4.379
	c-0.826,0.177-1.354,0.988-1.178,1.811c0.152,0.719,0.788,1.212,1.495,1.212l0.317-0.033c3.29-0.698,6.053-3.359,6.877-6.617
	C1098.909,882.38,1098.414,881.551,1097.597,881.345z"/>
<path style="fill:#421F35;" d="M1100.237,873.511l1.035-0.406c2.104-1.939,3.372-4.807,3.392-7.668
	c0.006-0.844-0.674-1.534-1.515-1.54h-0.012c-0.838,0-1.521,0.678-1.528,1.516c-0.015,2.035-0.916,4.069-2.407,5.448
	c-0.621,0.57-0.659,1.536-0.087,2.157L1100.237,873.511z"/>
<path style="fill:#421F35;" d="M1109.122,846.695c-0.346,2.566-1.551,4.979-3.398,6.799c-0.603,0.594-0.609,1.561-0.018,2.16
	l1.089,0.456l1.071-0.439c2.327-2.294,3.849-5.337,4.281-8.572c0.114-0.835-0.474-1.605-1.309-1.716
	C1110.014,845.224,1109.232,845.859,1109.122,846.695z"/>
<path style="fill:#421F35;" d="M1119.958,821.696c-1.331,3.258-2.823,6.492-4.44,9.616c-0.388,0.749-0.092,1.67,0.656,2.058
	l0.702,0.171c0.552,0,1.086-0.302,1.357-0.827c1.656-3.201,3.19-6.522,4.553-9.866c0.32-0.779-0.056-1.671-0.838-1.99
	C1121.175,820.532,1120.28,820.911,1119.958,821.696z"/>
<path style="fill:#421F35;" d="M1095.156,818.963c0.695,0,1.322-0.474,1.485-1.176c0.194-0.823-0.313-1.644-1.133-1.837
	c-5.198-1.226-10.383-2.703-15.419-4.392c-2.769-0.925-5.627-1.999-7.465-4.031c-1.57-1.733-2.324-4.726-0.811-6.54
	c0.54-0.647,0.453-1.611-0.194-2.151c-0.644-0.534-1.608-0.453-2.151,0.194c-2.599,3.112-1.588,7.805,0.889,10.544
	c2.336,2.583,5.612,3.828,8.763,4.881c5.122,1.719,10.4,3.22,15.684,4.467L1095.156,818.963z"/>
<path style="fill:#421F35;" d="M996.174,838.275c0.259,0.555,0.811,0.88,1.384,0.88l0.648-0.143l15.156-7.086
	c0.764-0.358,1.095-1.268,0.737-2.032c-0.355-0.767-1.271-1.089-2.032-0.737l-15.156,7.086
	C996.147,836.601,995.816,837.508,996.174,838.275z"/>
<path style="fill:#421F35;" d="M1117.661,860.383l1.525-1.471c2.542-2.721,3.897-6.557,3.625-10.266
	c-0.063-0.847-0.88-1.507-1.635-1.414c-0.841,0.062-1.474,0.794-1.415,1.635c0.212,2.876-0.838,5.854-2.807,7.963l-1.352,1.298
	c-1.143,1.041-2.321,2.118-3.07,3.649c-0.981,2.008-0.907,4.126-0.838,6.173c0.06,1.746,0.117,3.392-0.522,4.711
	c-0.537,1.11-1.581,2.002-2.686,2.948c-1.143,0.976-2.321,1.987-3.163,3.383c-1.02,1.703-1.298,3.565-1.563,5.368
	c-0.09,0.585-0.173,1.169-0.29,1.742c-1.426,7.104-8.419,12.796-15.658,12.796l-0.233-0.002c-0.943-0.099-1.539,0.659-1.554,1.501
	c-0.015,0.844,0.659,1.539,1.501,1.554l0.296,0.003c8.76,0,16.916-6.644,18.644-15.249c0.126-0.623,0.221-1.262,0.313-1.897
	c0.236-1.575,0.457-3.061,1.163-4.24c0.585-0.972,1.531-1.781,2.53-2.637c1.295-1.107,2.632-2.252,3.449-3.938
	c0.967-1.999,0.895-4.105,0.823-6.146c-0.059-1.751-0.116-3.404,0.531-4.726C1115.769,862.11,1116.688,861.272,1117.661,860.383z"/>
<path style="fill:#421F35;" d="M1125.128,851.274c-0.796,0.277-1.217,1.149-0.937,1.945l4.323,12.354
	c0.221,0.63,0.809,1.023,1.441,1.023l0.504-0.086c0.797-0.278,1.217-1.149,0.937-1.945l-4.323-12.355
	C1126.796,851.417,1125.928,850.994,1125.128,851.274z"/>
<path style="fill:#421F35;" d="M1127.999,848.58c-0.504,0.674-0.367,1.632,0.31,2.136l5.821,4.338l0.913,0.304l1.223-0.615
	c0.504-0.675,0.367-1.632-0.311-2.136l-5.821-4.338C1129.467,847.769,1128.503,847.903,1127.999,848.58z"/>
<path style="fill:#421F35;" d="M1175.094,863.008c-0.797-0.268-1.668,0.138-1.951,0.931c-0.28,0.796,0.134,1.667,0.931,1.951
	c10.66,3.777,20.413,10.102,28.206,18.292l1.107,0.475l1.053-0.421c0.612-0.582,0.635-1.548,0.054-2.16
	C1196.369,873.54,1186.204,866.947,1175.094,863.008z"/>
<path style="fill:#421F35;" d="M1118.219,872.144c-0.579-0.602-1.551-0.617-2.16-0.035c-0.606,0.588-0.624,1.555-0.036,2.16
	c7.53,7.784,13.557,16.753,17.91,26.658c0.254,0.573,0.812,0.913,1.399,0.913l0.615-0.128c0.772-0.34,1.124-1.241,0.784-2.014
	C1132.23,889.458,1126,880.188,1118.219,872.144z"/>
<path style="fill:#421F35;" d="M639.534,853.324l0.74,0.191l1.336-0.788c0.865-1.569,2.822-2.491,4.619-3.19
	c11.248-4.347,24.241-4.618,35.653-0.719c0.806,0.257,1.668-0.155,1.943-0.951c0.271-0.8-0.155-1.668-0.955-1.943
	c-12.071-4.123-25.831-3.846-37.745,0.767c-2.309,0.895-4.848,2.136-6.188,4.556C638.528,851.987,638.797,852.916,639.534,853.324z"
	/>
<path style="fill:#421F35;" d="M646.67,825.318c12.462-4.222,26.995-1.453,37.038,7.035l0.984,0.361l1.166-0.543
	c0.546-0.644,0.463-1.608-0.182-2.151c-10.845-9.162-26.538-12.14-39.985-7.596c-0.8,0.272-1.229,1.137-0.958,1.936
	C645.006,825.159,645.868,825.592,646.67,825.318z"/>
<path style="fill:#421F35;" d="M667.457,872.222l1.116,0.486l1.041-0.412c10.389-9.684,25.975-13.631,39.717-10.039
	c0.818,0.235,1.65-0.277,1.862-1.092c0.215-0.814-0.274-1.65-1.092-1.862c-14.712-3.843-31.434,0.382-42.569,10.761
	C666.914,870.637,666.881,871.604,667.457,872.222z"/>
<path style="fill:#421F35;" d="M702.764,1251.304c-0.794-0.233-1.659,0.221-1.894,1.035c-3.115,10.589-1.047,22.741,5.4,31.706
	l1.242,0.635l0.892-0.287c0.683-0.492,0.841-1.447,0.349-2.133c-5.91-8.217-7.808-19.354-4.953-29.063
	C704.038,1252.39,703.575,1251.543,702.764,1251.304z"/>
<path style="fill:#421F35;" d="M689.478,1283.774c-0.767-0.319-1.67,0.045-1.996,0.827c-3.613,8.709-4.815,18.247-3.482,27.58
	c0.111,0.764,0.764,1.313,1.51,1.313l0.217-0.015c0.835-0.12,1.418-0.895,1.298-1.728c-1.256-8.792-0.122-17.775,3.279-25.98
	C690.627,1284.991,690.257,1284.097,689.478,1283.774z"/>
<path style="fill:#421F35;" d="M838.193,1272.269c0.238-0.808-0.224-1.656-1.036-1.894c-0.805-0.224-1.658,0.224-1.894,1.035
	c-3.118,10.595-1.047,22.744,5.4,31.706l1.241,0.635l0.892-0.287c0.686-0.495,0.841-1.447,0.349-2.133
	C837.235,1293.115,835.337,1281.981,838.193,1272.269z"/>
<path style="fill:#421F35;" d="M824.734,1304.96c-0.769-0.325-1.671,0.048-1.996,0.827c-3.61,8.711-4.815,18.247-3.485,27.579
	c0.11,0.764,0.764,1.313,1.509,1.313l0.218-0.015c0.835-0.119,1.417-0.892,1.298-1.727c-1.253-8.792-0.12-17.776,3.282-25.98
	C825.882,1306.177,825.513,1305.282,824.734,1304.96z"/>
<path style="fill:#421F35;" d="M967.761,1251.424c-0.745,0.396-1.026,1.322-0.626,2.065c5.418,10.135,7.364,21.956,5.475,33.293
	c-0.138,0.832,0.424,1.62,1.256,1.757l0.254,0.021c0.731,0,1.379-0.528,1.504-1.277c1.999-11.996-0.06-24.51-5.797-35.232
	C969.43,1251.301,968.496,1251.024,967.761,1251.424z"/>
<path style="fill:#421F35;" d="M960.145,1295.072c-0.522-0.671-1.489-0.79-2.145-0.271c-0.665,0.519-0.788,1.477-0.271,2.145
	c5.46,7.035,9.669,14.876,12.516,23.305c0.215,0.635,0.808,1.038,1.447,1.038l0.49-0.081c0.8-0.269,1.229-1.137,0.957-1.936
	C970.184,1310.522,965.81,1302.38,960.145,1295.072z"/>
<path style="fill:#421F35;" d="M1065.646,1198.328c-0.746,0.397-1.027,1.322-0.627,2.065c5.419,10.132,7.364,21.956,5.475,33.294
	c-0.137,0.832,0.424,1.62,1.256,1.757l0.254,0.021c0.731,0,1.378-0.528,1.504-1.277c1.999-11.997-0.06-24.51-5.797-35.233
	C1067.31,1198.203,1066.377,1197.922,1065.646,1198.328z"/>
<path style="fill:#421F35;" d="M1051.671,1252.656c-0.516-0.672-1.486-0.791-2.142-0.269c-0.665,0.516-0.788,1.477-0.269,2.142
	c5.454,7.026,9.664,14.867,12.516,23.307c0.214,0.636,0.808,1.039,1.447,1.039l0.49-0.081c0.799-0.269,1.229-1.136,0.957-1.936
	C1061.71,1268.095,1057.336,1259.953,1051.671,1252.656z"/>
<path style="fill:#421F35;" d="M695.213,1235.369l0.107,0.002c0.794,0,1.465-0.617,1.522-1.423
	c3.44-50.708,2.942-102.094-1.474-152.724c-0.075-0.844-0.824-1.498-1.653-1.39c-0.841,0.075-1.465,0.815-1.391,1.653
	c4.404,50.478,4.896,101.703,1.468,152.253C693.736,1234.581,694.371,1235.313,695.213,1235.369z"/>
<path style="fill:#421F35;" d="M644.093,1742.958h0.008c0.838,0,1.522-0.677,1.528-1.518c0.466-71.435,7.781-143.792,14.858-213.765
	c6.623-65.512,13.473-133.259,14.703-200.193c0.015-0.841-0.656-1.539-1.501-1.554c-0.719,0-1.539,0.656-1.554,1.501
	c-1.226,66.804-8.071,134.486-14.688,199.938c-7.083,70.045-14.407,142.473-14.873,214.054
	C642.568,1742.264,643.248,1742.953,644.093,1742.958z"/>
<path style="fill:#421F35;" d="M624.407,1747.046c0.477-0.698,0.301-1.647-0.394-2.125c-0.695-0.471-1.641-0.295-2.124,0.394
	c-6.018,8.777-4.726,20.532-3.688,29.978c10.424,94.847-1.862,188.295-17.728,291.862c-11.487,74.988-23.904,150.964-36.909,225.815
	c-0.147,0.832,0.411,1.623,1.241,1.767l0.265,0.024c0.728,0,1.373-0.522,1.501-1.265c13.011-74.875,25.432-150.868,36.921-225.875
	c15.903-103.788,28.212-197.444,17.746-292.661C620.203,1765.55,619.031,1754.887,624.407,1747.046z"/>
<path style="fill:#421F35;" d="M793.756,1734.357c-0.818-0.227-1.653,0.25-1.88,1.063c-8.083,29.032-20.757,56.394-37.673,81.328
	c-0.472,0.698-0.29,1.647,0.409,2.121l0.856,0.263l1.265-0.672c17.102-25.205,29.916-52.871,38.085-82.224
	C795.044,1735.425,794.57,1734.584,793.756,1734.357z"/>
<path style="fill:#421F35;" d="M780.473,1794.147c-0.835,0.113-1.423,0.88-1.313,1.718c2.241,16.782-6.34,32.718-14.634,48.128
	c-1.51,2.805-3.01,5.591-4.437,8.366c-16.666,32.396-24.477,68.389-32.031,103.192c-0.179,0.827,0.343,1.638,1.166,1.817
	l0.328,0.035c0.701,0,1.333-0.489,1.488-1.202c7.513-34.615,15.282-70.406,31.763-102.446c1.42-2.757,2.912-5.529,4.41-8.313
	c8.527-15.84,17.346-32.219,14.977-49.983C782.075,1794.621,781.281,1794.04,780.473,1794.147z"/>
<path style="fill:#421F35;" d="M922.845,1867.563c-1.11-6.027-2.268-11.403-5.191-16.162c-0.925-1.504-2.002-2.891-3.044-4.234
	c-1.238-1.593-2.407-3.1-3.32-4.765c-4.419-8.034-1.167-19.447,6.82-23.943c0.737-0.415,0.997-1.345,0.582-2.079
	c-0.418-0.74-1.364-1-2.079-0.582c-9.368,5.272-13.182,18.656-8.002,28.079c1.032,1.873,2.33,3.547,3.586,5.164
	c1.038,1.336,2.017,2.599,2.855,3.959c2.646,4.308,3.735,9.395,4.786,15.117c3.488,18.907,6.268,38.213,8.27,57.385
	c0.081,0.785,0.743,1.37,1.516,1.37l0.161-0.009c0.838-0.087,1.45-0.838,1.361-1.677
	C929.137,1905.934,926.341,1886.548,922.845,1867.563z"/>
<path style="fill:#421F35;" d="M907.205,1724.875c-0.182-0.821-0.984-1.334-1.82-1.164c-0.824,0.182-1.346,0.997-1.164,1.82
	c10.932,49.727,27.037,98.492,47.865,144.94c0.254,0.567,0.811,0.904,1.393,0.904l0.624-0.134c0.77-0.343,1.116-1.247,0.77-2.017
	C934.131,1822.962,918.091,1774.396,907.205,1724.875z"/>
<path style="fill:#421F35;" d="M1049.63,1458.795c-0.838,0.098-1.441,0.853-1.346,1.691c10.646,92.917,13.303,187.36,7.9,280.715
	c-0.048,0.844,0.594,1.567,1.435,1.614l0.09,0.003c0.805,0,1.477-0.626,1.525-1.438c5.415-93.531,2.751-188.153-7.913-281.24
	C1051.226,1459.302,1050.435,1458.723,1049.63,1458.795z"/>
<path style="fill:#421F35;" d="M1007.941,1853.922l0.182-0.012c0.838-0.099,1.438-0.856,1.337-1.694
	c-7.298-61.774-16.779-124.101-28.179-185.248c-0.155-0.829-0.964-1.382-1.782-1.22c-0.829,0.152-1.375,0.952-1.22,1.781
	c11.385,61.082,20.855,123.34,28.15,185.045C1006.518,1853.352,1007.177,1853.922,1007.941,1853.922z"/>
<path style="fill:#421F35;" d="M1041.354,1965.668c0.009-0.844-0.669-1.534-1.513-1.543h-0.015c-0.835,0-1.518,0.675-1.527,1.513
	c-0.916,90.091,0.981,181.361,5.636,271.266c0.042,0.818,0.715,1.45,1.525,1.45l0.078-0.003c0.844-0.042,1.492-0.761,1.447-1.602
	C1042.333,2146.903,1040.438,2055.699,1041.354,1965.668z"/>
<path style="fill:#421F35;" d="M965.718,1990.244c-0.844,0.015-1.516,0.707-1.504,1.551c1.534,96.481,1.492,194.288-0.119,290.707
	c-0.015,0.844,0.659,1.54,1.501,1.554h0.027c0.832,0,1.512-0.668,1.528-1.501c1.611-96.455,1.653-194.294,0.119-290.808
	C967.254,1990.903,966.565,1990.279,965.718,1990.244z"/>
<path style="fill:#421F35;" d="M1005.742,2162.304c-0.838,0.084-1.453,0.83-1.372,1.671c2.891,29.513,4.332,59.506,4.281,89.148
	c0,0.844,0.681,1.531,1.525,1.531h0.002c0.841,0,1.528-0.683,1.528-1.524c0.051-29.743-1.393-59.838-4.293-89.453
	C1007.332,2162.838,1006.571,2162.262,1005.742,2162.304z"/>
<path style="fill:#421F35;" d="M708.823,2058.874c-0.758-0.09-1.59,0.516-1.68,1.358l-22.514,211.294
	c-0.089,0.838,0.519,1.591,1.358,1.68l0.164,0.009c0.769,0,1.432-0.582,1.515-1.366l22.514-211.294
	C710.27,2059.715,709.662,2058.963,708.823,2058.874z"/>
<path style="fill:#421F35;" d="M686.205,1929.334c-0.826-0.146-1.626,0.393-1.775,1.232
	c-21.592,119.207-40.603,240.503-56.508,360.522c-0.111,0.835,0.477,1.602,1.315,1.716l0.203,0.012c0.752,0,1.408-0.558,1.513-1.328
	c15.896-119.968,34.898-241.216,56.484-360.379C687.586,1930.28,687.038,1929.487,686.205,1929.334z"/>
<path style="fill:#421F35;" d="M760.648,1519.877c-0.818-0.084-1.573,0.573-1.635,1.414c-7.328,101.497-22.806,203.203-46,302.298
	c-0.191,0.824,0.319,1.644,1.14,1.838l0.349,0.039c0.695,0,1.322-0.475,1.489-1.179c23.229-99.254,38.729-201.12,46.071-302.776
	C762.121,1520.67,761.488,1519.939,760.648,1519.877z"/>
<path style="fill:#421F35;" d="M809.673,1302.702c-29.098,0-62.899-7.814-83.492-15.556c-0.791-0.304-1.668,0.098-1.966,0.892
	c-0.299,0.788,0.102,1.671,0.891,1.966c20.849,7.841,55.086,15.753,84.566,15.753c0.844,0,1.528-0.683,1.528-1.528
	S810.517,1302.702,809.673,1302.702z"/>
<path style="fill:#421F35;" d="M943.067,1300.052c0.815-0.215,1.301-1.053,1.086-1.868c-0.215-0.815-1.05-1.306-1.868-1.086
	c-32.303,8.551-86.615,4.75-87.161,4.705c-0.851-0.084-1.575,0.57-1.635,1.415c-0.06,0.841,0.573,1.572,1.414,1.635
	c0.26,0.018,12.555,0.88,28.925,0.88C902.207,1305.733,925.721,1304.644,943.067,1300.052z"/>
<path style="fill:#421F35;" d="M983.16,1289.759l0.438-0.065c1.668-0.499,41.051-12.456,61.5-30.381
	c0.632-0.555,0.695-1.521,0.14-2.157c-0.555-0.632-1.518-0.698-2.157-0.141c-19.945,17.484-59.96,29.632-60.36,29.755
	c-0.808,0.241-1.268,1.092-1.023,1.9C981.894,1289.332,982.503,1289.759,983.16,1289.759z"/>
<path style="fill:#421F35;" d="M745.801,1239.113l0.934,0.32l1.208-0.594c3.353-4.344,7.649-8.058,12.426-10.741
	c0.734-0.412,0.997-1.342,0.582-2.079c-0.415-0.734-1.334-1-2.08-0.582c-5.128,2.879-9.744,6.868-13.345,11.534
	C745.011,1237.639,745.133,1238.6,745.801,1239.113z"/>
<path style="fill:#421F35;" d="M756.697,1250.994l0.289,0.027c0.719,0,1.358-0.51,1.498-1.241c0.952-5.013,2.685-9.816,5.153-14.28
	c0.409-0.74,0.141-1.668-0.596-2.076c-0.743-0.4-1.671-0.146-2.077,0.597c-2.626,4.75-4.469,9.857-5.481,15.186
	C755.325,1250.036,755.871,1250.836,756.697,1250.994z"/>
<path style="fill:#421F35;" d="M1037.061,1203.83c-0.743,0.397-1.026,1.322-0.63,2.068l5.809,10.89l1.349,0.809l0.719-0.179
	c0.746-0.397,1.027-1.325,0.629-2.068l-5.809-10.89C1038.731,1203.714,1037.801,1203.43,1037.061,1203.83z"/>
<path style="fill:#421F35;" d="M1043.123,1198.176c-0.653-0.537-1.614-0.444-2.151,0.206c-0.537,0.651-0.445,1.614,0.206,2.151
	c5.152,4.252,9.529,9.622,12.662,15.535l1.349,0.811l0.715-0.179c0.743-0.394,1.03-1.319,0.633-2.065
	C1053.222,1208.374,1048.583,1202.681,1043.123,1198.176z"/>
<path style="fill:#421F35;" d="M780.599,1075.556c-0.838,0.11-1.423,0.88-1.31,1.715c0.654,4.863,2.056,9.58,4.168,14.017
	c0.259,0.549,0.808,0.871,1.378,0.871l0.657-0.15c0.761-0.36,1.086-1.274,0.722-2.035c-1.972-4.15-3.285-8.562-3.899-13.11
	C782.201,1076.027,781.389,1075.412,780.599,1075.556z"/>
<path style="fill:#421F35;" d="M794.075,1084.524l1.05-0.417c0.612-0.579,0.638-1.548,0.06-2.16l-8.205-8.677
	c-0.582-0.609-1.548-0.641-2.16-0.059c-0.612,0.579-0.639,1.545-0.06,2.16l8.205,8.676L794.075,1084.524z"/>
<path style="fill:#421F35;" d="M776.281,1215.508l0.901,0.295l1.232-0.626c2.658-3.628,4.729-7.626,6.155-11.878
	c0.268-0.799-0.161-1.664-0.96-1.933c-0.785-0.274-1.665,0.164-1.933,0.961c-1.328,3.956-3.256,7.671-5.726,11.048
	C775.452,1214.055,775.598,1215.009,776.281,1215.508z"/>
<path style="fill:#421F35;" d="M782.466,1220.457l0.772-0.209c3.017-1.766,6.594-2.524,10.067-2.139
	c0.829,0.078,1.59-0.513,1.686-1.351c0.092-0.839-0.513-1.594-1.352-1.686c-4.12-0.451-8.366,0.444-11.946,2.539
	c-0.728,0.427-0.973,1.363-0.546,2.092L782.466,1220.457z"/>
<path style="fill:#421F35;" d="M1024.649,1191.484c-2.085,0.334-4.278,0.006-6.182-0.907c-0.755-0.367-1.67-0.051-2.038,0.713
	c-0.367,0.761-0.048,1.674,0.713,2.038c1.832,0.88,3.87,1.336,5.901,1.336c0.698,0,1.396-0.054,2.083-0.161
	c0.833-0.134,1.402-0.916,1.271-1.749C1026.266,1191.92,1025.449,1191.359,1024.649,1191.484z"/>
<path style="fill:#421F35;" d="M1027.593,1189.011c0.797-0.277,1.218-1.148,0.937-1.945c-1.832-5.254-4.484-10.156-7.883-14.569
	c-0.519-0.668-1.477-0.794-2.142-0.28c-0.668,0.516-0.793,1.474-0.281,2.142c3.202,4.153,5.699,8.768,7.423,13.715
	c0.218,0.629,0.808,1.024,1.441,1.024L1027.593,1189.011z"/>
<path style="fill:#421F35;" d="M1032.496,1038.93c-0.576-0.62-1.548-0.647-2.157-0.068l-17.415,16.344
	c-0.618,0.576-0.648,1.542-0.069,2.157l1.113,0.483l1.044-0.414l17.415-16.344
	C1033.044,1040.511,1033.074,1039.545,1032.496,1038.93z"/>
<path style="fill:#421F35;" d="M1034.736,1046.78c-0.773-0.343-1.677,0.009-2.014,0.779l-8.163,18.513
	c-0.343,0.773,0.009,1.674,0.778,2.014l0.618,0.131c0.585,0,1.146-0.34,1.396-0.91l8.163-18.513
	C1035.858,1048.021,1035.506,1047.12,1034.736,1046.78z"/>
<path style="fill:#421F35;" d="M1022.185,1085.127c0.704-0.463,0.901-1.408,0.439-2.115c-0.463-0.707-1.411-0.904-2.115-0.439
	c-92.052,60.336-224.762,30.862-226.093,30.554c-0.821-0.194-1.644,0.328-1.829,1.149c-0.188,0.821,0.325,1.641,1.149,1.829
	c0.662,0.152,33.824,7.524,78.449,7.524C917.701,1123.629,975.146,1115.959,1022.185,1085.127z"/>
<path style="fill:#421F35;" d="M721.605,1075.257l0.343-0.039c10.708-2.464,20.935-6.525,30.402-12.075
	c0.728-0.427,0.973-1.363,0.546-2.091c-0.43-0.734-1.372-0.967-2.091-0.546c-9.198,5.391-19.136,9.341-29.543,11.734
	c-0.821,0.188-1.334,1.008-1.146,1.832C720.28,1074.78,720.906,1075.257,721.605,1075.257z"/>
<path style="fill:#421F35;" d="M871.271,1043.2l1.057,0.423l1.104-0.472c16.812-17.603,31.915-36.966,44.884-57.549
	c0.45-0.713,0.235-1.656-0.478-2.106c-0.71-0.448-1.653-0.233-2.106,0.477c-12.862,20.413-27.839,39.612-44.509,57.066
	C870.638,1041.651,870.662,1042.617,871.271,1043.2z"/>
<path style="fill:#421F35;" d="M921.547,1062.3l1.325-0.767l28.14-49.103c0.421-0.734,0.167-1.668-0.563-2.086
	c-0.737-0.418-1.668-0.17-2.086,0.564l-28.14,49.103c-0.421,0.734-0.167,1.668,0.564,2.085L921.547,1062.3z"/>
<path style="fill:#421F35;" d="M723.454,803.356c0,5.203,4.231,9.434,9.434,9.434c5.201,0,9.431-4.231,9.431-9.434
	c0-5.201-4.23-9.431-9.431-9.431C727.685,793.925,723.454,798.155,723.454,803.356z M732.889,796.98
	c3.515,0,6.375,2.861,6.375,6.375c0,3.518-2.861,6.379-6.375,6.379c-3.518,0-6.379-2.861-6.379-6.379
	C726.509,799.841,729.371,796.98,732.889,796.98z"/>
<path style="fill:#421F35;" d="M834.58,683.891c0,5.203,4.23,9.434,9.431,9.434c5.203,0,9.434-4.231,9.434-9.434
	c0-5.2-4.231-9.431-9.434-9.431C838.81,674.461,834.58,678.692,834.58,683.891z M850.389,683.891c0,3.518-2.861,6.379-6.379,6.379
	c-3.515,0-6.375-2.861-6.375-6.379c0-3.514,2.861-6.375,6.375-6.375C847.528,677.516,850.389,680.378,850.389,683.891z"/>
<path style="fill:#421F35;" d="M857.875,760.93c0-5.203-4.231-9.434-9.434-9.434c-5.201,0-9.431,4.231-9.431,9.434
	c0,5.2,4.23,9.431,9.431,9.431C853.644,770.361,857.875,766.13,857.875,760.93z M842.065,760.93c0-3.518,2.861-6.379,6.375-6.379
	c3.518,0,6.379,2.861,6.379,6.379c0,3.515-2.862,6.375-6.379,6.375C844.926,767.305,842.065,764.445,842.065,760.93z"/>
<path style="fill:#421F35;" d="M762.127,813.38l0.221-0.015c0.835-0.122,1.414-0.895,1.295-1.73
	c-1.295-8.96-2.464-18.074-3.476-27.085c-0.095-0.838-0.874-1.447-1.688-1.348c-0.838,0.095-1.441,0.85-1.349,1.688
	c1.017,9.043,2.19,18.188,3.488,27.18C760.728,812.831,761.382,813.38,762.127,813.38z"/>
<path style="fill:#421F35;" d="M767.008,785.395c-0.486-0.695-1.447-0.86-2.128-0.379c-0.692,0.483-0.862,1.435-0.379,2.127
	l12.525,17.967l1.253,0.654l0.874-0.275c0.692-0.483,0.862-1.435,0.379-2.127L767.008,785.395z"/>
<path style="fill:#421F35;" d="M1012.956,814.508c0.708,0,1.34-0.495,1.492-1.214c1.08-5.141,2.658-10.189,4.696-15.007
	c0.328-0.775-0.036-1.671-0.815-2.002c-0.764-0.325-1.674,0.033-2.002,0.814c-2.112,4.998-3.751,10.237-4.869,15.568
	c-0.173,0.827,0.355,1.635,1.182,1.808L1012.956,814.508z"/>
<path style="fill:#421F35;" d="M996.198,815.818l0.94,0.325l1.202-0.588l13.614-17.421c0.522-0.662,0.403-1.623-0.263-2.142
	c-0.659-0.528-1.623-0.406-2.142,0.263l-13.614,17.421C995.413,814.338,995.533,815.299,996.198,815.818z"/>
<path style="fill:#421F35;" d="M693.446,705.821c-0.826-0.116-1.569,0.588-1.62,1.429c-0.304,4.816-0.188,9.673,0.343,14.437
	c0.087,0.781,0.749,1.358,1.516,1.358l0.173-0.009c0.838-0.095,1.441-0.851,1.349-1.689c-0.513-4.588-0.624-9.267-0.331-13.906
	C694.929,706.6,694.287,705.875,693.446,705.821z"/>
<path style="fill:#421F35;" d="M699.518,709.646c-0.815-0.131-1.611,0.453-1.734,1.286c-0.579,3.885-0.767,7.832-0.561,11.737
	c0.042,0.815,0.716,1.448,1.525,1.448l0.081-0.003c0.841-0.042,1.489-0.761,1.444-1.605c-0.194-3.7-0.015-7.444,0.531-11.129
	C700.929,710.544,700.353,709.768,699.518,709.646z"/>
<path style="fill:#421F35;" d="M713.6,705.048c-0.644,0.543-0.728,1.507-0.182,2.151c4.287,5.081,8.241,10.538,11.749,16.222
	l1.301,0.725l0.803-0.227c0.719-0.444,0.94-1.384,0.498-2.103c-3.589-5.812-7.632-11.391-12.018-16.586
	C715.208,704.586,714.244,704.508,713.6,705.048z"/>
<path style="fill:#421F35;" d="M725.749,699.609c-0.352-0.764-1.262-1.095-2.029-0.74c-0.764,0.355-1.095,1.262-0.74,2.029
	c2.754,5.925,5.093,12.089,6.952,18.322c0.2,0.665,0.805,1.092,1.464,1.092l0.436-0.063c0.809-0.241,1.268-1.092,1.029-1.9
	C730.958,711.973,728.566,705.669,725.749,699.609z"/>
<path style="fill:#421F35;" d="M1026.09,721.839c-0.635,4.693-1.578,9.395-2.807,13.975c-0.221,0.815,0.262,1.653,1.077,1.871
	l0.397,0.053c0.674,0,1.292-0.45,1.474-1.13c1.265-4.705,2.235-9.538,2.885-14.363c0.113-0.835-0.472-1.605-1.31-1.716
	C1026.97,720.369,1026.2,721.004,1026.09,721.839z"/>
<path style="fill:#421F35;" d="M1030.467,739.18h0.035c0.827,0,1.507-0.659,1.528-1.492c0.068-2.935,0.543-5.851,1.408-8.658
	c0.251-0.806-0.203-1.662-1.009-1.909c-0.814-0.266-1.661,0.203-1.909,1.008c-0.951,3.076-1.471,6.268-1.545,9.487
	C1028.957,738.461,1029.623,739.159,1030.467,739.18z"/>
<path style="fill:#421F35;" d="M1059.121,740.668c0.06,0.806,0.731,1.418,1.521,1.418l0.114-0.003
	c0.841-0.063,1.474-0.794,1.414-1.635l-1.089-14.885c-0.062-0.844-0.848-1.498-1.635-1.415c-0.841,0.063-1.474,0.794-1.414,1.635
	L1059.121,740.668z"/>
<path style="fill:#421F35;" d="M1024.795,634.932c0,0.841,0.686,1.525,1.528,1.525h0.003c0.844,0,1.525-0.686,1.525-1.531
	c-0.045-31.008-3.655-62.052-10.731-92.266c-0.194-0.821-1.006-1.331-1.838-1.139c-0.821,0.194-1.331,1.014-1.14,1.837
	C1021.167,573.346,1024.75,604.154,1024.795,634.932z"/>
<path style="fill:#421F35;" d="M1044.233,669.064c0.009,0.838,0.692,1.512,1.527,1.512h0.015c0.844-0.009,1.522-0.701,1.513-1.542
	c-0.301-28.845-2.384-57.973-6.188-86.579c-0.114-0.838-0.904-1.432-1.719-1.313c-0.835,0.114-1.423,0.88-1.313,1.719
	C1041.861,611.341,1043.935,640.347,1044.233,669.064z"/>
<path style="fill:#421F35;" d="M690.976,668.294c0.149,0.719,0.784,1.214,1.492,1.214l0.316-0.032
	c0.824-0.173,1.355-0.982,1.182-1.808c-7.411-35.519-18.08-70.57-31.715-104.176c-0.319-0.785-1.208-1.167-1.987-0.841
	c-0.781,0.316-1.16,1.205-0.841,1.987C672.985,598.076,683.601,632.951,690.976,668.294z"/>
<path style="fill:#421F35;" d="M711.189,679.357c0.084,0.784,0.746,1.366,1.516,1.366l0.164-0.009
	c0.838-0.086,1.447-0.838,1.358-1.68c-2.971-28.218-9.699-55.926-19.993-82.361c-0.304-0.781-1.187-1.173-1.978-0.868
	c-0.785,0.307-1.176,1.191-0.868,1.979C701.582,623.961,708.245,651.407,711.189,679.357z"/>
<path style="fill:#421F35;" d="M546.766,904.429c-0.008-0.838-0.689-1.512-1.528-1.512h-0.015c-0.841,0.008-1.521,0.698-1.513,1.542
	c0.081,8.852,0.391,17.857,0.928,26.766c0.048,0.812,0.722,1.435,1.521,1.435l0.095-0.003c0.841-0.051,1.483-0.772,1.432-1.617
	C547.157,922.184,546.847,913.231,546.766,904.429z"/>
<path style="fill:#421F35;" d="M566.151,904.232c-0.698-0.45-1.65-0.26-2.112,0.453c-5.087,7.865-8.754,16.472-10.905,25.581
	c-0.194,0.824,0.313,1.644,1.134,1.838l0.352,0.042c0.692,0,1.322-0.475,1.486-1.176c2.07-8.772,5.603-17.057,10.499-24.626
	C567.06,905.638,566.857,904.692,566.151,904.232z"/>
<path style="fill:#421F35;" d="M1197.545,850.477c-0.603-0.593-1.569-0.588-2.16,0.012c-0.594,0.603-0.588,1.569,0.012,2.16
	c6.194,6.116,11.603,12.99,16.076,20.434l1.31,0.74l0.788-0.218c0.722-0.436,0.958-1.372,0.522-2.098
	C1209.488,863.847,1203.921,856.77,1197.545,850.477z"/>
<path style="fill:#421F35;" d="M1222.914,869.79c-2.193-9.073-4.929-18.116-8.127-26.876c-0.29-0.788-1.158-1.199-1.96-0.91
	c-0.791,0.29-1.199,1.166-0.91,1.96c3.159,8.652,5.859,17.582,8.025,26.542c0.17,0.701,0.797,1.169,1.486,1.169l0.358-0.042
	C1222.607,871.434,1223.111,870.611,1222.914,869.79z"/>
<path style="fill:#421F35;" d="M1143.376,776.545c-0.502-0.686-1.456-0.829-2.133-0.331c-0.684,0.499-0.83,1.453-0.331,2.133
	c8.396,11.478,15.589,23.896,21.374,36.904c0.253,0.57,0.811,0.907,1.396,0.907l0.621-0.131c0.77-0.343,1.119-1.247,0.775-2.016
	C1159.203,800.802,1151.903,788.197,1143.376,776.545z"/>
<path style="fill:#421F35;" d="M1126.292,689.757c0.238,0.6,0.812,0.964,1.42,0.964l0.564-0.108c0.785-0.31,1.167-1.199,0.856-1.984
	c-11.698-29.504-27.956-56.809-48.318-81.155c-0.549-0.656-1.513-0.74-2.151-0.194c-0.648,0.543-0.734,1.506-0.194,2.151
	C1098.623,633.53,1114.713,660.555,1126.292,689.757z"/>
<path style="fill:#421F35;" d="M687.569,789.169c0.268,0.532,0.805,0.838,1.363,0.838l0.689-0.164
	c0.752-0.379,1.053-1.298,0.675-2.053c-7.978-15.819-17.731-30.766-28.988-44.428c-0.54-0.648-1.501-0.743-2.151-0.206
	c-0.651,0.537-0.743,1.498-0.206,2.151C670.064,758.793,679.692,773.55,687.569,789.169z"/>
<path style="fill:#421F35;" d="M673.704,729.871c-0.788,0.305-1.178,1.188-0.877,1.976c4.177,10.851,7.447,22.126,9.714,33.511
	c0.144,0.728,0.782,1.229,1.495,1.229l0.301-0.029c0.826-0.164,1.363-0.97,1.199-1.797c-2.3-11.555-5.618-23-9.858-34.012
	C675.372,729.964,674.504,729.576,673.704,729.871z"/>
<path style="fill:#421F35;" d="M991.57,647.174c-14.007-5.448-27.221-12.707-39.364-21.634c-1.686-1.238-3.369-2.518-5.055-3.801
	c-8.897-6.77-18.095-13.769-29.239-15.852c-8.306-1.566-13.596,1.319-18.713,4.088c-4.272,2.315-8.691,4.708-15.183,4.708
	c-0.845,0-1.528,0.683-1.528,1.528c0,0.844,0.683,1.528,1.528,1.528c7.264,0,12.244-2.697,16.639-5.078
	c5.078-2.751,9.458-5.117,16.696-3.771c10.431,1.952,19.337,8.727,27.95,15.282c1.701,1.292,3.395,2.581,5.096,3.834
	c14.422,10.6,30.324,18.889,47.271,24.638l0.49,0.081c0.635,0,1.232-0.4,1.447-1.038c0.271-0.797-0.158-1.665-0.958-1.936
	c-7.217-2.447-12.391-24.027-13.438-34.493c-1.453-14.571,2.181-30.041,5.693-44.997c2.085-8.867,4.239-18.036,5.266-26.822
	c0.095-0.835-0.504-1.596-1.343-1.694c-0.829-0.092-1.596,0.501-1.695,1.342c-1.005,8.611-3.139,17.692-5.201,26.473
	c-3.571,15.204-7.265,30.925-5.758,46.003C982.709,620.93,985.612,638.059,991.57,647.174z"/>
<path style="fill:#421F35;" d="M746.21,625.638c-5.341-9.697-11.8-18.868-18.048-27.735c-4.564-6.481-9.285-13.181-13.509-20.008
	c-0.439-0.722-1.381-0.937-2.1-0.495c-0.719,0.442-0.94,1.385-0.495,2.101c4.272,6.906,9.019,13.644,13.608,20.16
	c6.199,8.801,12.611,17.904,17.865,27.452c7.417,13.468,15.353,33.726,11.042,53.754c-0.146,0.686,0.191,1.385,0.821,1.695
	l0.674,0.155l1.167-0.543c9.846-11.672,16.2-26.452,17.892-41.62c0.217-1.955,0.379-3.956,0.54-5.974
	c0.713-8.914,1.453-18.131,7.483-23.979c8.733-8.473,23.349-5.015,31.288-2.198c1.954,0.692,3.914,1.441,5.884,2.192
	c9.138,3.494,18.605,7.116,28.37,5.472c0.833-0.137,1.394-0.924,1.256-1.757c-0.14-0.836-0.952-1.4-1.757-1.256
	c-8.969,1.485-18.024-1.969-26.78-5.314c-1.99-0.761-3.974-1.519-5.952-2.22c-8.604-3.047-24.516-6.725-34.433,2.885
	c-6.859,6.65-7.644,16.451-8.405,25.93c-0.158,1.987-0.316,3.956-0.531,5.878c-1.408,12.629-6.179,24.975-13.581,35.343
	C760.111,660.378,755.913,643.259,746.21,625.638z"/>
<path style="fill:#421F35;" d="M866.149,613.459c-0.838,0.092-1.447,0.844-1.355,1.683c5.824,53.549,6.674,107.92,2.53,161.615
	c-0.065,0.841,0.564,1.575,1.405,1.638l0.12,0.005c0.788,0,1.458-0.609,1.518-1.411c4.162-53.88,3.309-108.443-2.536-162.176
	C867.738,613.973,866.918,613.388,866.149,613.459z"/>
<path style="fill:#421F35;" d="M746.902,171.215l0.728,0.185l1.342-0.799c7.522-13.859,11.657-29.513,11.961-45.279
	c0.015-0.844-0.653-1.54-1.498-1.558h-0.03c-0.829,0-1.512,0.665-1.528,1.498c-0.292,15.279-4.302,30.45-11.591,43.882
	C745.885,169.885,746.16,170.813,746.902,171.215z"/>
<path style="fill:#421F35;" d="M779.602,160.872l0.469,0.074c0.644,0,1.244-0.412,1.453-1.059
	c5.91-18.355,8.974-37.437,9.112-56.723c0.005-0.844-0.675-1.533-1.516-1.539h-0.012c-0.838,0-1.522,0.677-1.528,1.515
	c-0.134,18.976-3.151,37.754-8.963,55.81C778.358,159.753,778.799,160.615,779.602,160.872z"/>
<path style="fill:#421F35;" d="M893.704,134.214c2.638,12.367,7.161,22.714,13.45,30.751l1.203,0.585l0.94-0.325
	c0.666-0.519,0.781-1.48,0.263-2.142c-6-7.671-10.329-17.597-12.865-29.507c-2.312-10.848-2.936-21.959-3.542-32.703
	c-0.045-0.838-0.635-1.531-1.611-1.438c-0.841,0.048-1.485,0.767-1.438,1.611C890.712,111.903,891.344,123.133,893.704,134.214z"/>
<path style="fill:#421F35;" d="M935.357,171.511l0.884-0.281c0.689-0.489,0.85-1.441,0.363-2.131
	c-9.744-13.751-15.243-30.602-15.485-47.453c-0.012-0.847-0.829-1.569-1.548-1.506c-0.844,0.012-1.518,0.707-1.507,1.548
	c0.251,17.466,5.95,34.928,16.046,49.178L935.357,171.511z"/>
<path style="fill:#421F35;" d="M708.603,225.101c16.935,12.191,36.799,20.234,57.448,23.266l0.224,0.015
	c0.742,0,1.396-0.546,1.509-1.306c0.122-0.833-0.456-1.611-1.292-1.733c-20.163-2.957-39.565-10.815-56.105-22.723
	c-0.683-0.498-1.635-0.337-2.134,0.349C707.761,223.651,707.917,224.606,708.603,225.101z"/>
<path style="fill:#421F35;" d="M875.015,221.414c6.71,0.71,13.471,1.062,20.246,1.062c20.926,0,41.946-3.366,61.73-9.956
	c0.799-0.268,1.232-1.133,0.967-1.933c-0.269-0.8-1.125-1.226-1.933-0.967c-25.775,8.59-53.677,11.615-80.687,8.757
	c-0.821-0.092-1.591,0.516-1.68,1.358C873.568,220.572,874.177,221.324,875.015,221.414z"/>
<path style="fill:#421F35;" d="M821.941,199.318l0.376,0.048c0.683,0,1.304-0.46,1.48-1.152
	c6.021-23.684,9.598-48.071,10.642-72.482c0.036-0.844-0.62-1.554-1.462-1.594c-0.973-0.039-1.557,0.618-1.594,1.462
	c-1.032,24.202-4.58,48.381-10.547,71.861C820.629,198.279,821.124,199.112,821.941,199.318z"/>
<path style="fill:#421F35;" d="M848.924,172.561l0.075-0.003c0.844-0.042,1.492-0.758,1.45-1.6
	c-1.211-24.635-1.378-49.628-0.489-74.284c0.029-0.841-0.63-1.551-1.475-1.581c-0.82,0.009-1.551,0.632-1.581,1.474
	c-0.89,24.74-0.722,49.82,0.495,74.541C847.439,171.925,848.113,172.561,848.924,172.561z"/>
<path style="fill:#421F35;" d="M893.699,1310.381c-0.833,0.137-1.397,0.922-1.259,1.754c8.465,51.484-0.352,104.725-10.108,154.846
	c-0.161,0.83,0.382,1.632,1.209,1.793l0.295,0.027c0.716,0,1.355-0.507,1.498-1.235c9.807-50.391,18.668-103.943,10.12-155.925
	C895.318,1310.808,894.507,1310.226,893.699,1310.381z"/>
<path style="fill:#421F35;" d="M912.447,1446.213l0.373,0.045c0.686,0,1.307-0.463,1.482-1.154
	c10.034-39.968,11.979-82.62,5.627-123.343c-0.131-0.835-0.91-1.39-1.745-1.274c-0.833,0.131-1.402,0.913-1.274,1.746
	c6.289,40.322,4.365,82.551-5.573,122.125C911.134,1445.178,911.629,1446.007,912.447,1446.213z"/>
</svg>
